/* XPM */
static char *_101dee55fef4eb8831800f61083c441[] = {
/* columns rows colors chars-per-pixel */
"32 32 200 2 ",
"   c None",
".  c black",
"X  c #010000",
"o  c #020000",
"O  c #030200",
"+  c #040100",
"@  c #060402",
"#  c #080500",
"$  c #090703",
"%  c #0C0902",
"&  c #0D0902",
"*  c #0C0903",
"=  c #0B0904",
"-  c #0E0B06",
";  c #100B02",
":  c #110E04",
">  c #130E06",
",  c #150F06",
"<  c #141009",
"1  c #151009",
"2  c #181308",
"3  c #191309",
"4  c #19130A",
"5  c #1A1409",
"6  c #1B170D",
"7  c #1C170E",
"8  c #1E180D",
"9  c #1D180E",
"0  c #1D180F",
"q  c #1F190E",
"w  c #1F1A0F",
"e  c #20180D",
"r  c #211A0E",
"t  c #221B0E",
"y  c #231B0E",
"u  c #201A10",
"i  c #231C11",
"p  c #241D11",
"a  c #241E11",
"s  c #271E11",
"d  c #261F11",
"f  c #241D12",
"g  c #241E13",
"h  c #251E13",
"j  c #261E12",
"k  c #271F12",
"l  c #251F14",
"z  c #272012",
"x  c #292112",
"c  c #292114",
"v  c #282015",
"b  c #292115",
"n  c #2A2314",
"m  c #2D2416",
"M  c #2C2516",
"N  c #2D2516",
"B  c #2D2417",
"V  c #2E2516",
"C  c #2E2616",
"Z  c #312818",
"A  c #312819",
"S  c #332919",
"D  c #31291B",
"F  c #32291A",
"G  c #332A1B",
"H  c #352B1A",
"J  c #352B1B",
"K  c #362C1B",
"L  c #352D1E",
"P  c #392F1C",
"I  c #3A2F1D",
"U  c #3B301E",
"Y  c #3B311F",
"T  c #3C311E",
"R  c #3C311F",
"E  c #3F331F",
"W  c #3A3120",
"Q  c #3D3220",
"!  c #3E3320",
"~  c #3F3522",
"^  c #413422",
"/  c #433722",
"(  c #433623",
")  c #443723",
"_  c #433724",
"`  c #433825",
"'  c #453A25",
"]  c #443926",
"[  c #483B26",
"{  c #483C26",
"}  c #493D27",
"|  c #4A3D26",
" . c #4B3E28",
".. c #4A3F29",
"X. c #4C3F28",
"o. c #4E4029",
"O. c #4E422B",
"+. c #50422A",
"@. c #51422A",
"#. c #51432B",
"$. c #52432B",
"%. c #51432C",
"&. c #50432D",
"*. c #53442C",
"=. c #55462E",
"-. c #55472E",
";. c #57492F",
":. c #584A2F",
">. c #564730",
",. c #584A30",
"<. c #5A4B31",
"1. c #5A4B32",
"2. c #5B4C31",
"3. c #5B4C32",
"4. c #5B4D33",
"5. c #5C4C32",
"6. c #5D4D32",
"7. c #5C4D33",
"8. c #5E4E34",
"9. c #5F4F34",
"0. c #5F5036",
"q. c #5F5137",
"w. c #604F33",
"e. c #615134",
"r. c #625135",
"t. c #625235",
"y. c #625237",
"u. c #655437",
"i. c #655538",
"p. c #675538",
"a. c #69573A",
"s. c #69583A",
"d. c #6A583A",
"f. c #6A583C",
"g. c #6B5B3D",
"h. c #6D5C3D",
"j. c #6F5D3D",
"k. c #6F5D3E",
"l. c #726041",
"z. c #736042",
"x. c #756342",
"c. c #766343",
"v. c #776443",
"b. c #796644",
"n. c #7A6644",
"m. c #7B6845",
"M. c #7D6845",
"N. c #7C6846",
"B. c #7E6946",
"V. c #806B48",
"C. c #836E4A",
"Z. c #826F4B",
"A. c #846F4C",
"S. c #87734E",
"D. c #8C7650",
"F. c #8C7651",
"G. c #8D7651",
"H. c #8C7751",
"J. c #8E7852",
"K. c #907951",
"L. c #917A54",
"P. c #947D55",
"I. c #957F56",
"U. c #9B8358",
"Y. c #9C8258",
"T. c #9D8358",
"R. c #9C8359",
"E. c #9D8359",
"W. c #A1885D",
"Q. c #A0895D",
"!. c #A2885D",
"~. c #A38B5E",
"^. c #A48B5F",
"/. c #A68C5F",
"(. c #A78F61",
"). c #A98F62",
"_. c #AD9365",
"`. c #B09466",
"'. c #B29767",
"]. c #B49767",
"[. c #B69968",
"{. c #BFA16E",
"}. c #C9AA74",
"|. c #C9AB75",
" X c #CBAD77",
".X c #D5B47C",
"XX c #D6B57D",
"oX c #DAB980",
"OX c #E3C184",
"+X c #E3C28B",
"@X c #E1C592",
"#X c #F1D4A0",
"$X c #F7D9A4",
"%X c #F7E5B5",
"&X c #FFE4B1",
"*X c #FFE6B3",
"=X c #FDF2C2",
"-X c #FFF4C4",
";X c #FFFFF9",
":X c #FFFFFE",
/* pixels */
"                                                                ",
"                                                                ",
"                                                                ",
"                                                                ",
"                                                                ",
"                                                                ",
"                                                                ",
"            3 N J k r y r x X     + r j k k r +                 ",
"        N q N 7.3.N G C.J n.j X   q ! M.'.H.N 5                 ",
"      5 U.k.P.q X     X ] ..U -     k.XX;X#XH.X                 ",
"    r XX[._.@ X           ` m.6     G _.:X'.b X                 ",
"  $.(.OX..l X               ~ =     j J.*XM.7                   ",
"  ! Y.Y.!.X                         z v.!.;.6                   ",
"3.d.u.b.b X                         x k.u.o.6                   ",
"C.t.3.t.g                           N t.e.[ u                   ",
"D.=.M.7.g                           G ,.V.] j                   ",
"~.,. Xo.u                           K $.|.{ l                   ",
"U.3.&X..q                           I ..&Xo.l                   ",
"{ $.=X,.v.X                         R X.-X%.b                   ",
"  ).}.$X( -                 + :     ( X.&X,.b                   ",
"  z.;.%Xl.%.                _ 5.    _ $.|.d.j             X.>   ",
"    q.z.{.! j             7.! G X   H i.Y.XXC.X         w.I L   ",
"      L.@Xo.I %.# # & & o.! x.G X 3 J.a.+XY.R e.> & N o.{ !.X   ",
"        X S.t.~.S.K _ D.(.>.W X 1 N *.d.k.g.e.] G G U #.3.q.X   ",
"            X # 1 q 6 - X X X       X X X X X X X X X X X X     ",
"                                                                ",
"                                                                ",
"                                                                ",
"                                                                ",
"                                                                ",
"                                                                ",
"                                                                "
};
