/* XPM */
static char *_6eed48e8ee44393a9933cd1a64e0595[] = {
/* columns rows colors chars-per-pixel */
"16 16 66 1 ",
"  c None",
". c #050401",
"X c #080602",
"o c #090703",
"O c #090704",
"+ c #0A0704",
"@ c #0B0804",
"# c #0D0905",
"$ c #0C0906",
"% c #130E09",
"& c #131009",
"* c #13100A",
"= c #141009",
"- c #16120C",
"; c #1A160E",
": c #1C170F",
"> c #1F1A11",
", c #201B12",
"< c #252015",
"1 c #272115",
"2 c #272116",
"3 c #282217",
"4 c #2C2417",
"5 c #2B2418",
"6 c #2D2619",
"7 c #2E271A",
"8 c #2F271B",
"9 c #30281B",
"0 c #30291B",
"q c #312A1B",
"w c #30291C",
"e c #322B1D",
"r c #342B1D",
"t c #352C1E",
"y c #372E20",
"u c #382F20",
"i c #393021",
"p c #3C3222",
"a c #3D3322",
"s c #3E3424",
"d c #463C2A",
"f c #4B3E2B",
"g c #4B3F2B",
"h c #4F432D",
"j c #52452E",
"k c #564832",
"l c #574A34",
"z c #584B33",
"x c #5B4D35",
"c c #5E5037",
"v c #65573B",
"b c #6B5A3E",
"n c #776547",
"m c #786547",
"M c #776748",
"N c #786748",
"B c #7C6949",
"V c #7D6B4A",
"C c #826E4D",
"Z c #8F7A56",
"A c #927D58",
"S c #97825B",
"D c #A99165",
"F c #AD9467",
"G c #D0B27C",
"H c #D1B27C",
/* pixels */
"                ",
"                ",
"                ",
"   o$$+  o.o    ",
" +st3<k:%j3,    ",
"#7n    p Vb<    ",
"vfy      Al3    ",
"mfe      Cf5    ",
"Df9      Nf9    ",
"xf9    @ Mfe    ",
" Hk;  *9-Sf7  % ",
"  jVi4cduFHZ>ep ",
"    $     *     ",
"                ",
"                ",
"                "
};
