/* XPM */
static char *_35c038cf1a049cab967c75d5cb7ed78[] = {
/* columns rows colors chars-per-pixel */
"64 64 216 2 ",
"   c None",
".  c #010200",
"X  c #030A02",
"o  c #0A0C05",
"O  c #0B0D09",
"+  c #0C0700",
"@  c #130D02",
"#  c #041104",
"$  c #0B1206",
"%  c #0D130B",
"&  c #0B190B",
"*  c #011708",
"=  c #1C1506",
"-  c #12150D",
";  c #111A0C",
":  c #1D1A0C",
">  c #171208",
",  c #131611",
"<  c #151C13",
"1  c #191D14",
"2  c #1B1D19",
"3  c #231C0D",
"4  c #231F13",
"5  c #1B2315",
"6  c #1F2916",
"7  c #1D231A",
"8  c #1E2B1A",
"9  c #172014",
"0  c #2B210F",
"q  c #222213",
"w  c #2D2413",
"e  c #22261C",
"r  c #242B1D",
"t  c #2B2A1C",
"y  c #2D2818",
"u  c #322614",
"i  c #342915",
"p  c #342C1A",
"a  c #382E1B",
"s  c #3D321B",
"d  c #31301D",
"f  c #25311C",
"g  c #232521",
"h  c #252B22",
"j  c #2A2D23",
"k  c #2A2D29",
"l  c #2B3424",
"z  c #2D3A26",
"x  c #2E332B",
"c  c #2D3B29",
"v  c #273121",
"b  c #32342D",
"n  c #343C2C",
"m  c #383E2E",
"M  c #363624",
"N  c #333731",
"B  c #353A33",
"V  c #383C33",
"C  c #3C3E39",
"Z  c #43351D",
"A  c #45381F",
"S  c #453B24",
"D  c #4A3C23",
"F  c #433621",
"G  c #35422E",
"H  c #39422E",
"J  c #3B4433",
"K  c #3D4934",
"L  c #3D433B",
"P  c #394735",
"I  c #4D4129",
"U  c #524227",
"Y  c #54452A",
"T  c #58462A",
"R  c #5B4B2C",
"E  c #57492A",
"W  c #424433",
"Q  c #424A37",
"!  c #444D3A",
"~  c #4A4E3C",
"^  c #474639",
"/  c #574B31",
"(  c #49533E",
")  c #45533E",
"_  c #5A5139",
"`  c #604E2F",
"'  c #635232",
"]  c #695635",
"[  c #6B5836",
"{  c #6D5A3A",
"}  c #635439",
"|  c #715D3A",
" . c #635030",
".. c #76613D",
"X. c #79633E",
"o. c #3E4542",
"O. c #464C44",
"+. c #494E44",
"@. c #484A46",
"#. c #4D5543",
"$. c #4E5945",
"%. c #4C544A",
"&. c #4A5548",
"*. c #525A45",
"=. c #52544D",
"-. c #545C4B",
";. c #595E4B",
":. c #545541",
">. c #555A52",
",. c #595C54",
"<. c #5A5F59",
"1. c #525650",
"2. c #4F5751",
"3. c #645C45",
"4. c #5B624E",
"5. c #56624D",
"6. c #5C6453",
"7. c #5E6856",
"8. c #5C6459",
"9. c #5E695A",
"0. c #566052",
"q. c #716245",
"w. c #7B6742",
"e. c #7E6841",
"r. c #776A4B",
"t. c #616552",
"y. c #626955",
"u. c #646C5B",
"i. c #696D5B",
"p. c #64655A",
"a. c #69715E",
"s. c #65705F",
"d. c #62654C",
"f. c #5F6860",
"g. c #636B61",
"h. c #696D65",
"j. c #676D66",
"k. c #6B7463",
"l. c #6C746A",
"z. c #697463",
"x. c #71766C",
"c. c #747B6C",
"v. c #777968",
"b. c #747A71",
"n. c #836C45",
"m. c #846F49",
"M. c #887046",
"N. c #8C734A",
"B. c #867148",
"V. c #90764B",
"C. c #92794E",
"Z. c #977E51",
"A. c #987F53",
"S. c #8A7752",
"D. c #7C8374",
"F. c #7B837B",
"G. c #79806D",
"H. c #9B8154",
"J. c #9F875A",
"K. c #A28759",
"L. c #A5895A",
"P. c #AA8D5C",
"I. c #A18656",
"U. c #AE915E",
"Y. c #848A7D",
"T. c #86897C",
"R. c #AC9162",
"E. c #B19461",
"W. c #B99B66",
"Q. c #BD9E69",
"!. c #B59966",
"~. c #A58B60",
"^. c #BFA068",
"/. c #C3A46D",
"(. c #C9A76E",
"). c #CCAB71",
"_. c #D1AE74",
"`. c #D4B276",
"'. c #D6B57B",
"]. c #D9B77A",
"[. c #DDBA7C",
"{. c #CFB075",
"}. c #848C82",
"|. c #878B83",
" X c #8B9285",
".X c #8B928A",
"XX c #92968A",
"oX c #93998D",
"OX c #989B8C",
"+X c #949B91",
"@X c #9BA397",
"#X c #A0A190",
"$X c #A7ACA5",
"%X c #DCBC85",
"&X c #E1BE84",
"*X c #DFC18C",
"=X c #E2C189",
"-X c #ECCC94",
";X c #EBCE9B",
":X c #E5C894",
">X c #EED19B",
",X c #F1D39D",
"<X c #F3D5A2",
"1X c #FBDEAD",
"2X c #F7DAA9",
"3X c #F5DEB1",
"4X c #EFD4A5",
"5X c #FEE3B3",
"6X c #FEE7B9",
"7X c #FFEBBD",
"8X c #FFF4CA",
"9X c #FDFCD8",
"0X c #FFFFE4",
"qX c #FCFCE9",
"wX c #FFFFFF",
"eX c #FFFFF4",
/* pixels */
"                                                                                                                                ",
"                                                                                                                                ",
"                                                                                                                                ",
"                                                                                                                                ",
"                                                                                                                                ",
"                                                                                                                                ",
"                                                                                                                                ",
"                                                                                                                                ",
"                                                      g o.=.>.>.>.N                                                             ",
"                                                o.1.<.j.g.g.g.g.j.h.g.<.=.N                                                     ",
"                                          N 1.>.1.>.<.f.j.l.b.x.b.j.g.<.>.1.>.=.g                                               ",
"                                      k 1.>.1.>.f.j.F.|.|.|..X.X.X.X|.b.l.g.<.>.>.%.                                            ",
"                                    @.%.@.2.j.b..X+X.X.X.XXX+X.X+X.X}.oX+X}.j.8.@.@.%.C                                         ",
"                                g C N N o.2.x.l.|.XXb.|..XOX@X@X+X}.F.$X}.}.|.x.j.8.@.O.O.                                      ",
"                            . > i u 4 4 a S Y S j C @.j.b.|.@X@X@Xb.@.@.o.@.@.@.j.<.o.k 2 g o                                   ",
"                      = ' n.{ w 3 R n.n.3.s 3 ] R.!.~.S.a a |.OXoXC p > ] J.~.~.H.C.C.N.w.= w Y @                               ",
"                  F V.W.^.s N.E./ _ q.q.q./ { Q.i &X8X6XE.{ =.|.OXp._ 3./ ^.6X8X8X8X6X-X4 R.S I >                               ",
"              + N.`.,X_.D _.R r.g N B k k k k :.} / =XeX,Xm.B h.T. Xb.>.~ S qXwXeXwXwX'.`.q.2 , 2 .                             ",
"            U W.<X8X_.m.C.N.% g 4 k N N C C S o.B /  .3X,Xw.k @.T.XXY.x.+.S 9XwXwXwXwXw./.4 2 , , g                             ",
"          [ ].6X9X,X` L.} O 2 k o.N o.@.&.2.<.<.8.@./ F K.D p N h.XX XD.8.q.3XwXwXwXwX} A., k 4 2 e g                           ",
"        R ].6X0X9XA &Xw.X % h L &.o.&.8.8.f.f.G.D.v.;.R.S S t k +.XX+XXXc.3.:XwXwXwXeXD B.2 N B N h B                           ",
"      @ _.5X9X0Xn._.Y . % h x O.&.0.8.s.f.j.z.D.D.T.Y.t. .N.p k S Y.#X|.c._ {.qXwXwX9XT B., k ,.O.x 7 k                         ",
"      !.-X8X9X_.D /.t O , N 0.>.8.9.9.s.s.j.z.z.D. X#X<.D n.D x O.u.OXT.k.~ W.8XqXqX,XS m., x =.&.P l x                         ",
"    A &X-X5X,X[ !.S O , g B O.&.z.z.s.s.9.s.z.z.l.Y.XXb.,.r.N ^ ,.c.T.|.g.^ L.-X8X1X).Z w.2 e L L #.P 7 j                       ",
"    /./.`.[.U.D ].S o < l L &.7.z.z.u.s.z.z.k.z.z.G.c. Xc.p.%.+.,.c.c.c.z.^ K./.=X].V.Z ..1 k J $.*.Q h b                       ",
"  @ ].N.P.I.| ` W.+ O 2 B L &.6.9.9.a.s.x.z.7.9.a.9.y.7.6.6.+.+.*.0.u.6.0.W C.C.P.L...Z | 2 N ^ >.;.! V r                       ",
"  X.N.| e.X.U n.D . , h G %.$.5.u.k.u.5.a.u.7.-.u.%.O.z.k.s.6.4.9.u.9.z.;.W m.[ e.X.T A | 1 b ~ 6.6.&.H e 1                     ",
"  U.U T ` T U I.a X - h P ! $.4.a.a.4.7.i.5.7.z.9.8 $.G.k.l.y.a.a.7.0.y.k.W X.U ` E D D | 2 B #.;.6.;.Q t e                     ",
"Z I.A U T U  .U.M + 1 b $.-.6.6.i.t.i.k.k.4.p.c.P 9 c.i.z.i.k.a.7.u.9.$.k.~ { A U U U D { 1 b +.;.y.6.! r q                     ",
"E ] A U T U M.P.a O 1 M #.;.-.5.d.u.y.y.a.i.6.;.* N c.y.y.6.y.d.a.7.6.) 4.^ ] A U U R E [ < j ! 4.y.y.*.n e -                   ",
"' T R E R ` P.P.u O 1 n ! *.-.$.*.y.4.y.i.i.k.r # +.7.$.7.7.$.4.5.5.$.K G W R E T R | ' ] , r J #.*.4.:.J h 2                   ",
"[ A ..| | e.(.C.w % h J J n +.J 4.4.4.4.d.i.#.X < 9.$.$.6.-.-.5.( $.) K z M Y | | X.A.| ' , 1 r ! 4.5.*.! t 1                   ",
"..A H.H.H.P.[...4 % t m J J m ~ 4.4.;.4.d.i.7 . v 5.( *.! ) #.! #.P G P 8 f D H.H.K./.M.' - 1 j Q 4.#.~ J q h                   ",
"| A _.`.`.[.=X` 3 % g m z J W ~ ( *._ 4.d.( # # ! K H J K ! G G G G G G G 6 A (.).`.=XH.' O 7 r m #.#.! M 5 t                   ",
"3 Z -X-X-X-X,X] u @ r z z m i.W Q K J K ;.; X 9 $.H J H H ! Q ! K G G G G q s =X:X-X<XR.R O h V J 4.( Q l q 7                   ",
"  u =X1X1X1X2XK.n.O r n v v v.#.Q 5.$.4.H X X J 4.Q Q #.J ) $.&.P P P G H f i ,X1X5X5XQ.R % b V q ! ! H r 5 1                   ",
"  n.P.6X8X6X5X-X .+ , 1 l m 3.) K K Q ( & X X 5.Q Q Q Q ! H K ! G G G G G q i 2X7X7X6X(.T - h m j l G b 6 < %                   ",
"  U Z 5X7X7X6X,XZ @ - 1 m l n K H H ( G . X 6 $.Q Q W Q K n h Q P G G z G q i 2X7X7X5X'.T - 1 h l K J G 9 ;                     ",
"    X.;X5X6X5X<XL.{ , 5 #.~ l ( :.6.a.$ X X Q *.#.Q Q Q m 3 @ r P P G G G q i ,X5X6X<X%XY O % 1 ! Q b l $ $                     ",
"    A N.>X-X<X-X&Xu @ % z l ( Q K 8 $ X * % ;.;.*.4.H H z @ [ S v G K K ! t i =X,X,X&X%XI O h 5 l Q f r $ %           . i       ",
"      (.;XW.`.].W.E.A . % ; t.v.n . . & X l 4.( #.! H n p Z J.M 8 l J L H t i (.].].W.*XE , B e t l z ; o           = A  .      ",
"      { '.;XP.P.L.U.u Z o $ ( $.v . # * X ! ! ! :.J H t i Z.R.: 5 8 l ! n d i L.E.E.L.*Xm.$ e 5 9 8 r . ;           u U.Z .     ",
"        w.%X4XN.V.M.P.3 : 9 6 f r X & # q v.;.:.J J t i !.| ' , 5 8 z l n / A N.H.H.C.H.A o % < j & # . -         = W.(.R .     ",
"          | '.;XV.B.n.!.= p 9 H G & # X J 0.:.! V r w E { P.T , 2 h v n r I H.m.V.V.N.e.s I % < , X . o         @ u [ ^.D . .   ",
"            4  .;X'.N.N.| w o : 5 h . # X . X . @ 0 E.X._.N.} . . . . . X 3 /.C.H.H.Z.V.W.3 3 3 . . . o . @ @ i R | | C.. .     ",
"              . ~.| *X%XX.e.A.3 @ = q : : 3 o @ M.E ..X.X.' X X # O q w 3 (./.>X>X>X>X,X&Xn.B.m.' I D U T ] Z.` /.&Xw.' . .     ",
"                  . ] m.n.(.W.K.K.H.B.X...B.Z.X.X.| q.!.m.O , < < w w.C.n.| | ....X.X.X.| ] R T Y D U U Y ] A.E.^.Z.' Y . .     ",
"                      . . w S.N.R T Y U U E ' H.S.4 . O O O - $ 9 % M p i > o . X o X o + O . . . X . . . . F Y / D : . .       ",
"                        X X . . X , O O O - O X o % , % , & < 9 l 8 5 2 % X O < 1 % X - , . . . O . . . . . . . . . . . .       ",
"                          O . . . . e 1 - % < 1 < % . . $ 9 < # O % 7 & X ; < 8 < 2 8 < . . . o .                               ",
"                            - X . . . 5 j 7 ; j r r j 6 6 6 r & 9 5 l h x 8 7 5 7 z < . . . o .                                 ",
"                              O o . . . , l m n & r r v l c J n #.z z 8 8 5 n v l o . . . O X                                   ",
"                                . , . . . . ; m m n r z r 6 5 5 J m r r z H r % . . . . <                                       ",
"                                    - X . . . . % h m H G H K z #.J m l 9 . . . . . o -                                         ",
"                                      X - . . . . . . . ; ; & < % . . . . . . . o 1                                             ",
"                                          . - o . . . . . . . . . . . . . . % - .                                               ",
"                                                X - - - $ X o X X $ - - - X                                                     ",
"                                                      . o - 1 - $ $                                                             ",
"                                                                                                                                ",
"                                                                                                                                ",
"                                                                                                                                ",
"                                                                                                                                ",
"                                                                                                                                ",
"                                                                                                                                "
};
